Coordinates
version=1
nRows=12
nColumns=24
inDegrees=yes

Units are S.I. units (second, meters, Newtons, ...)
Angles are in degrees.

endheader
time	pelvis_tilt	pelvis_list	pelvis_rotation	pelvis_tx	pelvis_ty	pelvis_tz	hip_flexion_r	hip_adduction_r	hip_rotation_r	knee_angle_r	ankle_angle_r	subtalar_angle_r	mtp_angle_r	hip_flexion_l	hip_adduction_l	hip_rotation_l	knee_angle_l	ankle_angle_l	subtalar_angle_l	mtp_angle_l	lumbar_extension	lumbar_bending	lumbar_rotation
      5.19500000	     32.80278133	     11.48218924	     12.68952656	      1.48532717	      0.64866794	     -0.26989933	    -12.18257553	     -7.89095045	    -17.54951987	     -1.61670430	      9.29040630	      4.78963800	      0.00000000	    -49.85629906	     -2.51465186	      3.76990469	    -23.11264999	     18.42636236	     19.95905323	      0.00000000	    -60.98428599	      1.73928044	    -10.63278256
      5.20000000	     33.07794962	     11.17114237	     12.90386407	      1.49330568	      0.64860582	     -0.26989683	    -12.16715098	     -7.46211062	    -17.23841827	     -3.13171953	      8.53904758	      4.05365228	      0.00000000	    -49.86691591	     -3.22857252	      3.43546091	    -24.76620778	     17.05216291	     20.18905178	      0.00000000	    -61.02919883	      2.30515473	    -10.39972639
      5.20500000	     33.36308051	     10.90145133	     13.03414234	      1.50123089	      0.64861984	     -0.26982498	    -12.12979803	     -7.10163348	    -16.95057781	     -4.76986794	      7.81511904	      3.56762963	      0.00000000	    -49.80293676	     -3.84103674	      3.03551738	    -26.52970750	     15.40437918	     20.30485009	      0.00000000	    -61.10969231	      2.77445703	    -10.17145843
      5.21000000	     33.63316288	     10.64396815	     13.15887219	      1.50917694	      0.64870008	     -0.26972029	    -12.08284558	     -6.74770252	    -16.66545539	     -6.46713623	      7.12302808	      3.06547708	      0.00000000	    -49.63004779	     -4.43689354	      2.58111729	    -28.40798416	     13.54860599	     20.29275636	      0.00000000	    -61.17352723	      3.21571729	     -9.97344825
      5.21500000	     33.89682888	     10.40577432	     13.26441851	      1.51712618	      0.64884119	     -0.26955572	    -12.03940440	     -6.40506815	    -16.36018837	     -8.20368733	      6.52672052	      2.56566701	      0.00000000	    -49.36164811	     -5.00855504	      2.06421123	    -30.37832917	     11.48636158	     20.13672122	      0.00000000	    -61.23607764	      3.61550682	     -9.79751298
      5.22000000	     34.14587764	     10.18490681	     13.34396556	      1.52507938	      0.64904298	     -0.26932999	    -11.99576844	     -6.07221938	    -16.01682227	     -9.95873978	      6.05459441	      2.05877750	      0.00000000	    -48.99559134	     -5.55292083	      1.47792627	    -32.41763660	      9.23073175	     19.81814992	      0.00000000	    -61.28381518	      3.96857455	     -9.63444550
      5.22500000	     34.30328843	      9.96502473	     13.29814897	      1.53301618	      0.64922299	     -0.26888228	    -11.81361771	     -5.77029641	    -15.53289052	    -11.76742600	      5.78935744	      1.50587094	      0.00000000	    -48.45331691	     -5.99863510	      0.74480437	    -34.52309263	      6.79999609	     19.39578097	      0.00000000	    -61.26900084	      4.15734137	     -9.41396224
      5.23000000	     34.59679331	      9.76086594	     13.44667051	      1.54099406	      0.64960890	     -0.26861794	    -11.95593738	     -5.37237817	    -15.32885253	    -13.37942896	      5.62723143	      1.12342460	      0.00000000	    -47.97692720	     -6.62233145	      0.10771683	    -36.64342979	      4.28432887	     18.61322913	      0.00000000	    -61.34936541	      4.53496795	     -9.35485639
      5.23500000	     34.86964295	      9.57310609	     13.53374517	      1.54893904	      0.65004148	     -0.26820065	    -12.09830446	     -4.97822186	    -15.06696766	    -14.95287608	      5.66433520	      0.66618655	      0.00000000	    -47.41666597	     -7.20194575	     -0.59602521	    -38.76864881	      1.69360577	     17.65526165	      0.00000000	    -61.42508752	      4.81533542	     -9.29529536
      5.24000000	     34.94042220	      9.37997474	     13.40102117	      1.55681112	      0.65037826	     -0.26749516	    -11.95002360	     -4.66275706	    -14.47793453	    -16.58435227	      5.96259953	      0.18920054	      0.00000000	    -46.58501036	     -7.57955538	     -1.47299699	    -40.91628883	     -0.90681620	     16.55129515	      0.00000000	    -61.34745211	      4.83484135	     -9.12235890
      5.24500000	     35.23127003	      9.17579234	     13.54979002	      1.56474881	      0.65097192	     -0.26702192	    -12.28795689	     -4.16288781	    -14.29020362	    -17.87875854	      6.36798033	     -0.18860071	      0.00000000	    -45.92992170	     -8.25021831	     -2.18919705	    -43.01172475	     -3.34459245	     15.18754157	      0.00000000	    -61.42626356	      5.13414110	     -9.05929719
      5.25000000	     35.49059356	      8.98805087	     13.64296646	      1.57262846	      0.65163238	     -0.26644791	    -12.63394303	     -3.67843553	    -14.06326097	    -19.09375603	      6.91957664	     -0.53242955	      0.00000000	    -45.21447377	     -8.86585831	     -2.94425262	    -45.04257269	     -5.62948090	     13.67606588	      0.00000000	    -61.49381483	      5.35152120	     -9.00227688
